<mxfile host="app.diagrams.net" agent="Mozilla/5.0 (Windows NT 10.0; Win64; x64) AppleWebKit/537.36 (KHTML, like Gecko) Chrome/133.0.0.0 Safari/537.36" version="26.0.16">
  <diagram name="Página-1" id="ELpyQfcIser1OyFT-Lrd">
    <mxGraphModel dx="1341" dy="820" grid="1" gridSize="10" guides="1" tooltips="1" connect="1" arrows="1" fold="1" page="1" pageScale="1" pageWidth="827" pageHeight="1169" math="0" shadow="0">
      <root>
        <mxCell id="0" />
        <mxCell id="1" parent="0" />
        <mxCell id="wSlSpuF27Unk5vS24lRH-4" style="edgeStyle=orthogonalEdgeStyle;rounded=0;orthogonalLoop=1;jettySize=auto;html=1;exitX=1;exitY=0.5;exitDx=0;exitDy=0;entryX=0;entryY=0.5;entryDx=0;entryDy=0;" parent="1" source="wSlSpuF27Unk5vS24lRH-1" target="wSlSpuF27Unk5vS24lRH-3" edge="1">
          <mxGeometry relative="1" as="geometry" />
        </mxCell>
        <mxCell id="wSlSpuF27Unk5vS24lRH-1" value="USUARIOS" style="whiteSpace=wrap;html=1;align=center;" parent="1" vertex="1">
          <mxGeometry x="170" y="400" width="100" height="40" as="geometry" />
        </mxCell>
        <mxCell id="wSlSpuF27Unk5vS24lRH-5" style="edgeStyle=orthogonalEdgeStyle;rounded=0;orthogonalLoop=1;jettySize=auto;html=1;exitX=0;exitY=0.5;exitDx=0;exitDy=0;entryX=1;entryY=0.5;entryDx=0;entryDy=0;" parent="1" source="wSlSpuF27Unk5vS24lRH-2" target="wSlSpuF27Unk5vS24lRH-3" edge="1">
          <mxGeometry relative="1" as="geometry" />
        </mxCell>
        <mxCell id="wSlSpuF27Unk5vS24lRH-2" value="DISEÑOS" style="whiteSpace=wrap;html=1;align=center;" parent="1" vertex="1">
          <mxGeometry x="570" y="400" width="100" height="40" as="geometry" />
        </mxCell>
        <mxCell id="wSlSpuF27Unk5vS24lRH-3" value="fk_id_usuarios" style="shape=rhombus;perimeter=rhombusPerimeter;whiteSpace=wrap;html=1;align=center;" parent="1" vertex="1">
          <mxGeometry x="350" y="390" width="120" height="60" as="geometry" />
        </mxCell>
        <mxCell id="wSlSpuF27Unk5vS24lRH-9" style="edgeStyle=orthogonalEdgeStyle;rounded=0;orthogonalLoop=1;jettySize=auto;html=1;exitX=0.5;exitY=1;exitDx=0;exitDy=0;entryX=0.5;entryY=0;entryDx=0;entryDy=0;" parent="1" source="wSlSpuF27Unk5vS24lRH-6" target="wSlSpuF27Unk5vS24lRH-2" edge="1">
          <mxGeometry relative="1" as="geometry" />
        </mxCell>
        <mxCell id="wSlSpuF27Unk5vS24lRH-6" value="id_diseños" style="ellipse;whiteSpace=wrap;html=1;align=center;fontStyle=4;" parent="1" vertex="1">
          <mxGeometry x="510" y="280" width="100" height="40" as="geometry" />
        </mxCell>
        <mxCell id="wSlSpuF27Unk5vS24lRH-8" style="edgeStyle=orthogonalEdgeStyle;rounded=0;orthogonalLoop=1;jettySize=auto;html=1;exitX=1;exitY=0.5;exitDx=0;exitDy=0;entryX=0;entryY=0.5;entryDx=0;entryDy=0;" parent="1" source="wSlSpuF27Unk5vS24lRH-7" target="wSlSpuF27Unk5vS24lRH-1" edge="1">
          <mxGeometry relative="1" as="geometry" />
        </mxCell>
        <mxCell id="wSlSpuF27Unk5vS24lRH-7" value="id_usuarios" style="ellipse;whiteSpace=wrap;html=1;align=center;fontStyle=4;" parent="1" vertex="1">
          <mxGeometry x="10" y="400" width="100" height="40" as="geometry" />
        </mxCell>
        <mxCell id="wSlSpuF27Unk5vS24lRH-11" style="edgeStyle=orthogonalEdgeStyle;rounded=0;orthogonalLoop=1;jettySize=auto;html=1;entryX=0.5;entryY=1;entryDx=0;entryDy=0;" parent="1" source="wSlSpuF27Unk5vS24lRH-10" target="wSlSpuF27Unk5vS24lRH-1" edge="1">
          <mxGeometry relative="1" as="geometry" />
        </mxCell>
        <mxCell id="wSlSpuF27Unk5vS24lRH-10" value="rol" style="ellipse;whiteSpace=wrap;html=1;align=center;" parent="1" vertex="1">
          <mxGeometry x="50" y="560" width="100" height="40" as="geometry" />
        </mxCell>
        <mxCell id="wSlSpuF27Unk5vS24lRH-13" style="edgeStyle=orthogonalEdgeStyle;rounded=0;orthogonalLoop=1;jettySize=auto;html=1;exitX=1;exitY=0.5;exitDx=0;exitDy=0;entryX=0.25;entryY=0;entryDx=0;entryDy=0;" parent="1" source="wSlSpuF27Unk5vS24lRH-12" target="wSlSpuF27Unk5vS24lRH-1" edge="1">
          <mxGeometry relative="1" as="geometry" />
        </mxCell>
        <mxCell id="wSlSpuF27Unk5vS24lRH-12" value="nombre_usuario" style="ellipse;whiteSpace=wrap;html=1;align=center;" parent="1" vertex="1">
          <mxGeometry x="50" y="320" width="100" height="40" as="geometry" />
        </mxCell>
        <mxCell id="wSlSpuF27Unk5vS24lRH-15" style="edgeStyle=orthogonalEdgeStyle;rounded=0;orthogonalLoop=1;jettySize=auto;html=1;exitX=0.5;exitY=1;exitDx=0;exitDy=0;entryX=0.5;entryY=0;entryDx=0;entryDy=0;" parent="1" source="wSlSpuF27Unk5vS24lRH-14" target="wSlSpuF27Unk5vS24lRH-1" edge="1">
          <mxGeometry relative="1" as="geometry" />
        </mxCell>
        <mxCell id="wSlSpuF27Unk5vS24lRH-14" value="contraseña" style="ellipse;whiteSpace=wrap;html=1;align=center;" parent="1" vertex="1">
          <mxGeometry x="170" y="230" width="100" height="40" as="geometry" />
        </mxCell>
        <mxCell id="wSlSpuF27Unk5vS24lRH-16" value="email" style="ellipse;whiteSpace=wrap;html=1;align=center;" parent="1" vertex="1">
          <mxGeometry x="290" y="280" width="100" height="40" as="geometry" />
        </mxCell>
        <mxCell id="wSlSpuF27Unk5vS24lRH-17" style="edgeStyle=orthogonalEdgeStyle;rounded=0;orthogonalLoop=1;jettySize=auto;html=1;entryX=0.69;entryY=0.1;entryDx=0;entryDy=0;entryPerimeter=0;" parent="1" source="wSlSpuF27Unk5vS24lRH-16" target="wSlSpuF27Unk5vS24lRH-1" edge="1">
          <mxGeometry relative="1" as="geometry" />
        </mxCell>
        <mxCell id="wSlSpuF27Unk5vS24lRH-19" style="edgeStyle=orthogonalEdgeStyle;rounded=0;orthogonalLoop=1;jettySize=auto;html=1;entryX=1;entryY=0.5;entryDx=0;entryDy=0;" parent="1" source="wSlSpuF27Unk5vS24lRH-18" target="wSlSpuF27Unk5vS24lRH-2" edge="1">
          <mxGeometry relative="1" as="geometry" />
        </mxCell>
        <mxCell id="wSlSpuF27Unk5vS24lRH-18" value="personalización" style="ellipse;whiteSpace=wrap;html=1;align=center;" parent="1" vertex="1">
          <mxGeometry x="727" y="240" width="100" height="40" as="geometry" />
        </mxCell>
      </root>
    </mxGraphModel>
  </diagram>
</mxfile>
